<svg width="55" height="70" viewBox="0 0 55 70" fill="none" xmlns="http://www.w3.org/2000/svg">
<path d="M40.5601 58.0826L42.7406 57.468C44.1894 57.0593 45.7434 56.1722 47.2341 54.9023C48.9803 53.4142 50.411 51.578 51.2631 49.7325C52.1303 47.8539 52.2952 46.1741 51.7274 45.0018C50.9652 43.4294 48.9808 42.946 46.498 43.8812L46.0203 44.0614L45.9086 44.6061C45.0541 48.7705 43.6557 52.594 41.7521 55.9699L40.5601 58.0826ZM47.5498 45.6141C48.8403 45.2265 49.8676 45.3944 50.1357 45.947C50.3357 46.3596 50.3297 47.3608 49.6547 48.8227C48.9219 50.4102 47.6709 52.0071 46.1323 53.3183C45.5889 53.781 45.0775 54.1538 44.6052 54.4543C45.8769 51.7225 46.8638 48.7619 47.5498 45.6141Z" fill="#451a03"/>
<path d="M7.63931 60.6317C12.164 66.6732 18.0783 70.0001 24.2922 70.0001C30.2336 70.0001 35.9275 66.939 40.3731 61.3678C40.7082 61.3864 41.036 61.3799 41.3791 61.3522C43.7198 61.1634 46.3178 59.9443 48.6956 57.9191C53.9034 53.481 56.3076 46.99 54.2878 42.8205C53.2204 40.6167 51.085 39.5229 48.4453 39.7667C48.4992 39.1802 48.5425 38.5939 48.5753 38.0135C48.6343 36.9675 48.3167 35.9535 47.7039 35.2313C47.1796 34.6138 46.4933 34.2734 45.7709 34.2734H2.81287C2.09239 34.2734 1.40689 34.6129 0.883154 35.2289C0.268714 35.9518 -0.0507483 36.9683 0.00657785 38.0182C0.480259 46.6612 3.19047 54.6919 7.63931 60.6317ZM2.19816 36.5991C2.32465 36.4502 2.53404 36.2729 2.81287 36.2729H45.7709C46.0508 36.2729 46.2607 36.4508 46.3875 36.6006C46.6564 36.9173 46.8004 37.3992 46.7726 37.8893C46.718 38.8563 46.6321 39.8411 46.5172 40.816L46.3522 42.2148L47.5994 41.9231C49.9996 41.3616 51.8569 42.0331 52.6958 43.7651C54.2503 46.9741 51.9613 52.6128 47.5935 56.3348C45.4934 58.1238 43.2397 59.1975 41.2473 59.3583C40.8503 59.3904 40.4818 59.386 40.0905 59.3379L39.6147 59.2786L39.3035 59.6821C35.1637 65.0465 29.8329 68.0009 24.2919 68.0009C12.6089 68.0009 2.73347 54.7777 1.80926 37.897C1.78234 37.4024 1.92768 36.917 2.19816 36.5991Z" fill="#451a03"/>
<path d="M17.392 63.9665C17.5164 63.9665 17.6286 63.9155 17.7155 63.8191C17.8014 63.7256 17.8488 63.6017 17.8488 63.4705C17.8488 63.3363 17.8006 63.206 17.7163 63.1131C17.5465 62.924 17.2612 62.9226 17.0774 63.1128C16.9937 63.2054 16.9458 63.336 16.9458 63.4705C16.9458 63.602 16.9929 63.7259 17.0774 63.8185C17.1614 63.9114 17.279 63.9665 17.392 63.9665Z" fill="#451a03"/>
<path d="M20.8637 62.0599C20.9881 62.0599 21.1003 62.0089 21.1872 61.913C21.2731 61.8192 21.3204 61.6954 21.3204 61.5644C21.3204 61.4303 21.272 61.2999 21.188 61.2067C21.0185 61.0177 20.7332 61.0165 20.5494 61.2064C20.4654 61.2993 20.4175 61.4297 20.4175 61.5644C20.4175 61.696 20.4646 61.8198 20.5494 61.9124C20.6328 62.0047 20.7504 62.0599 20.8637 62.0599Z" fill="#451a03"/>
<path d="M33.0681 57.6721C33.1849 57.6721 33.2963 57.6196 33.3762 57.5305C33.4675 57.4438 33.524 57.3082 33.524 57.176C33.524 57.0534 33.4815 56.9357 33.3886 56.8157C33.3009 56.7248 33.1776 56.677 33.0489 56.6809C32.9297 56.6856 32.8207 56.7372 32.7524 56.8192C32.66 56.9227 32.6113 57.0463 32.6113 57.1763C32.6113 57.3247 32.6797 57.4533 32.7437 57.5243C32.8285 57.6181 32.9467 57.6721 33.0681 57.6721Z" fill="#451a03"/>
<path d="M28.6139 59.9396C28.7328 59.9396 28.8448 59.8877 28.9285 59.7936C29.017 59.6954 29.0698 59.5619 29.0698 59.4359C29.0698 59.2982 29.0173 59.172 28.9285 59.0868C28.7525 58.8924 28.4664 58.8924 28.2917 59.0862C28.2056 59.1799 28.1582 59.3041 28.1582 59.4359C28.1582 59.5601 28.2091 59.6934 28.2855 59.7771C28.366 59.8804 28.4857 59.9396 28.6139 59.9396Z" fill="#451a03"/>
<path d="M31.6144 63.0358C31.7229 63.0358 31.8386 62.9848 31.9387 62.8889C32.023 62.7958 32.0711 62.6654 32.0711 62.5312C32.0711 62.3909 32.0192 62.2584 31.9414 62.1868C31.8623 62.0924 31.7514 62.039 31.6292 62.0367C31.5081 62.0302 31.3897 62.0838 31.3149 62.1673C31.2215 62.2564 31.1685 62.3894 31.1685 62.5312C31.1685 62.6707 31.2199 62.8031 31.3001 62.8792C31.3886 62.9774 31.5062 63.0358 31.6144 63.0358Z" fill="#451a03"/>
<path d="M33.0772 58.9407C32.9534 58.933 32.8374 58.9878 32.7626 59.0716C32.6695 59.1607 32.6162 59.2937 32.6162 59.4355C32.6162 59.575 32.6679 59.7074 32.7478 59.7835C32.8366 59.8817 32.9542 59.9401 33.0624 59.9401C33.1709 59.9401 33.2866 59.8891 33.3868 59.7932C33.471 59.6998 33.5192 59.5694 33.5192 59.4355C33.5192 59.2954 33.4672 59.1627 33.3894 59.0908C33.31 58.9964 33.1994 58.943 33.0772 58.9407Z" fill="#451a03"/>
<path d="M24.6756 64.3389C24.798 64.3389 24.9159 64.2849 24.998 64.1926C25.0828 64.1003 25.1315 63.9694 25.1315 63.8334C25.1315 63.7075 25.0817 63.5774 24.9988 63.4854C24.8362 63.3055 24.5235 63.3058 24.3612 63.4851C24.2756 63.5801 24.2285 63.7037 24.2285 63.8331C24.2285 63.9732 24.2748 64.0974 24.3607 64.1912C24.4425 64.2838 24.5604 64.3389 24.6756 64.3389Z" fill="#451a03"/>
<path d="M21.9895 66.4293C22.1063 66.4293 22.218 66.3774 22.3044 66.2818C22.3876 66.188 22.4355 66.0577 22.4355 65.9247C22.4355 65.7996 22.3919 65.6681 22.3098 65.5643C22.1297 65.3773 21.8342 65.3785 21.666 65.5667C21.5864 65.6534 21.5425 65.7808 21.5425 65.9247C21.5425 66.0595 21.5823 66.178 21.6711 66.288C21.7672 66.3818 21.8746 66.4293 21.9895 66.4293Z" fill="#451a03"/>
<path d="M24.7588 65.9436C24.6791 66.0303 24.6353 66.1577 24.6353 66.3016C24.6353 66.4364 24.6748 66.5549 24.7634 66.6649C24.86 66.759 24.9671 66.8065 25.082 66.8065C25.1994 66.8065 25.3111 66.7546 25.3972 66.659C25.4806 66.565 25.5285 66.4349 25.5285 66.3019C25.5285 66.1769 25.4849 66.0459 25.4028 65.9415C25.2225 65.7542 24.9273 65.7554 24.7588 65.9436Z" fill="#451a03"/>
<path d="M28.2805 66.0516C28.3979 66.0516 28.5093 65.9997 28.5954 65.9042C28.6789 65.8104 28.7268 65.68 28.7268 65.547C28.7268 65.4223 28.6832 65.291 28.6011 65.1866C28.4208 64.9997 28.1255 65.0014 27.957 65.189C27.8774 65.2757 27.8335 65.4031 27.8335 65.5473C27.8335 65.6824 27.8731 65.8006 27.9616 65.9106C28.0585 66.0041 28.1656 66.0516 28.2805 66.0516Z" fill="#451a03"/>
<path d="M28.8442 62.1594C28.8442 62.2939 28.8838 62.4128 28.9724 62.5228C29.0687 62.6165 29.1761 62.6643 29.291 62.6643C29.4084 62.6643 29.5198 62.6121 29.6059 62.5169C29.6896 62.4234 29.7375 62.293 29.7375 62.1597C29.7375 62.0344 29.6936 61.9032 29.6118 61.7991C29.4312 61.6121 29.1363 61.6136 28.9678 61.8014C28.8878 61.8878 28.8442 62.0152 28.8442 62.1594Z" fill="#451a03"/>
<path d="M37.7479 52.6339C37.8663 52.6339 37.978 52.5817 38.0563 52.4932C38.1443 52.4089 38.195 52.2797 38.195 52.139C38.195 52.0042 38.1468 51.8736 38.0623 51.7804C37.9791 51.6878 37.8569 51.6353 37.7312 51.6388C37.6096 51.6412 37.4968 51.694 37.425 51.7801C37.3404 51.8733 37.292 52.0042 37.292 52.139C37.292 52.2661 37.3418 52.3965 37.4241 52.4861C37.5078 52.5805 37.6257 52.6339 37.7479 52.6339Z" fill="#451a03"/>
<path d="M37.4095 56.93C37.5285 56.93 37.6405 56.8781 37.729 56.7784C37.8135 56.6717 37.8566 56.5531 37.8566 56.4263C37.8566 56.2856 37.8044 56.1526 37.7266 56.0804C37.6475 55.9866 37.5366 55.9335 37.4146 55.9312C37.2876 55.9306 37.1757 55.9786 37.0957 56.0671C37.0069 56.1641 36.9536 56.2986 36.9536 56.4263C36.9536 56.5561 37.0007 56.6796 37.0809 56.7675C37.1614 56.871 37.2814 56.93 37.4095 56.93Z" fill="#451a03"/>
<path d="M35.8501 61.3147C35.968 61.3147 36.0799 61.2619 36.1523 61.1788C36.2487 61.0994 36.306 60.9647 36.306 60.819C36.306 60.6851 36.2578 60.5544 36.1709 60.4586C36.0837 60.368 35.9569 60.3191 35.8326 60.3235C35.7134 60.3282 35.6041 60.3795 35.5357 60.4609C35.4515 60.5544 35.4033 60.6851 35.4033 60.819C35.4033 60.9496 35.4504 61.0826 35.5261 61.167C35.6111 61.2607 35.7292 61.3147 35.8501 61.3147Z" fill="#451a03"/>
<path d="M40.335 44.8849C40.4528 44.8849 40.5648 44.8321 40.6372 44.7489C40.7335 44.6693 40.7909 44.5348 40.7909 44.3888C40.7909 44.2549 40.7427 44.1246 40.6558 44.0284C40.5686 43.9376 40.4431 43.8887 40.3175 43.8934C40.1982 43.8978 40.089 43.9494 40.0206 44.0311C39.9364 44.1246 39.8882 44.2549 39.8882 44.3888C39.8882 44.5195 39.9353 44.6525 40.0109 44.7368C40.096 44.8309 40.2141 44.8849 40.335 44.8849Z" fill="#451a03"/>
<path d="M42.8971 47.3717C43.0149 47.3717 43.1266 47.3198 43.2117 47.2257C43.2959 47.1325 43.3441 47.0022 43.3441 46.868C43.3441 46.7362 43.297 46.612 43.2141 46.5221C43.1347 46.428 43.0179 46.374 42.8936 46.374H42.893C42.7671 46.3743 42.6495 46.4283 42.5738 46.5185C42.4885 46.6117 42.4414 46.7359 42.4414 46.868C42.4414 47.0075 42.4928 47.1399 42.5631 47.203C42.636 47.3101 42.7576 47.3717 42.8971 47.3717Z" fill="#451a03"/>
<path d="M41.9498 51.4614C42.0628 51.4614 42.1745 51.4056 42.2641 51.3048C42.3497 51.2104 42.3971 51.0865 42.3971 50.9568C42.3971 50.8167 42.3446 50.684 42.2674 50.6123C42.1899 50.52 42.0795 50.4678 41.9563 50.4658C41.8319 50.4569 41.7121 50.5132 41.6362 50.5985C41.5472 50.6955 41.4941 50.8294 41.4941 50.9565C41.4941 51.0957 41.5461 51.2281 41.6266 51.3042C41.7138 51.4027 41.8349 51.4614 41.9498 51.4614Z" fill="#451a03"/>
<path d="M26.9786 10.0267C26.5975 10.5504 26.2064 11.0235 25.7236 11.4941C25.237 11.9884 24.7089 12.4913 24.1548 13.0165C23.0696 14.0817 21.8601 15.2938 20.9518 16.9683C20.0308 18.6286 19.6282 20.7561 19.8806 22.6203C20.1002 24.5092 20.8186 26.1784 21.7533 27.5594C22.7092 28.9302 23.863 30.0759 25.1961 30.8344C23.6084 28.0914 22.5736 25.1164 22.7173 22.4651C22.7948 21.146 23.1627 20.0265 23.8313 19.0224C24.4966 18.0058 25.4585 17.0532 26.5353 16.0213C28.6117 14.0782 31.534 10.9533 31.1645 6.58537C31.0487 5.52605 30.6474 4.47233 30.0384 3.69465C29.4344 2.90871 28.7099 2.37817 28.0158 1.99508C26.6042 1.23509 25.2857 0.863204 24.0092 0C24.7132 1.49726 26.0592 2.52532 27.0004 3.59201C28.0021 4.65251 28.4518 5.70328 28.3385 6.76142C28.2626 7.8231 27.7243 8.99096 26.9786 10.0267Z" fill="#451a03"/>
<path d="M17.298 28.6226C16.109 26.8526 15.2445 24.9159 15.0271 22.9488C14.8101 20.985 15.3608 19.1103 16.5208 17.677C17.7203 16.193 19.3556 14.7491 20.5086 12.8086C21.0824 11.8487 21.5897 10.6974 21.5644 9.42098C21.513 8.12485 20.7737 7.0906 19.9388 6.51611C20.5172 7.42827 20.8646 8.44039 20.6838 9.36376C20.5231 10.2877 19.9819 11.1037 19.39 11.8693C18.1547 13.4135 16.6214 14.643 15.16 16.3638C14.453 17.2916 13.8838 18.4004 13.6106 19.6093C13.3573 20.8178 13.3487 22.0883 13.6432 23.2443C14.1952 25.573 15.5992 27.4622 17.298 28.6226Z" fill="#451a03"/>
<path d="M28.7272 19.1055C28.1889 20.01 27.8304 21.0738 27.743 22.1599C27.6665 23.2434 27.7903 24.3249 28.1289 25.2928C28.7773 27.2368 30.0271 28.8066 31.5332 29.7799C30.5428 28.2024 29.7895 26.5482 29.4835 24.8616C29.1729 23.1736 29.4294 21.5374 30.2328 20.2079C31.0394 18.8746 32.4052 17.7003 33.5792 16.2246C34.1694 15.4894 34.7166 14.6335 35.0312 13.6509C35.3375 12.6662 35.3413 11.5844 35.0202 10.6841C34.9104 12.6709 33.8483 13.9821 32.5944 15.1166C31.3559 16.2853 29.8538 17.2995 28.7272 19.1055Z" fill="#451a03"/>
</svg>
